<svg width="20" height="20" viewBox="0 0 20 20" fill="none" xmlns="http://www.w3.org/2000/svg">
<path fill-rule="evenodd" clip-rule="evenodd" d="M9.16675 11.6336V1.66659C9.16675 1.20635 9.53984 0.833252 10.0001 0.833252C10.4603 0.833252 10.8334 1.20635 10.8334 1.66659V11.6336L12.7442 9.72284C13.0696 9.3974 13.5972 9.3974 13.9227 9.72284C14.2481 10.0483 14.2481 10.5759 13.9227 10.9013L10.5893 14.2347C10.2639 14.5601 9.73626 14.5601 9.41083 14.2347L6.07749 10.9013C5.75206 10.5759 5.75206 10.0483 6.07749 9.72284C6.40293 9.3974 6.93057 9.3974 7.256 9.72284L9.16675 11.6336ZM1.66675 14.1666V16.6666C1.66675 18.0473 2.78604 19.1666 4.16675 19.1666H15.8334C17.2141 19.1666 18.3334 18.0473 18.3334 16.6666V14.1666C18.3334 13.7063 17.9603 13.3333 17.5001 13.3333C17.0398 13.3333 16.6667 13.7063 16.6667 14.1666V16.6666C16.6667 17.1268 16.2937 17.4999 15.8334 17.4999H4.16675C3.70651 17.4999 3.33341 17.1268 3.33341 16.6666V14.1666C3.33341 13.7063 2.96032 13.3333 2.50008 13.3333C2.03984 13.3333 1.66675 13.7063 1.66675 14.1666Z" fill="url(#paint0_linear_1_6025)"/>
<defs>
<linearGradient id="paint0_linear_1_6025" x1="1.66675" y1="0.833252" x2="19.6639" y2="2.24857" gradientUnits="userSpaceOnUse">
<stop stop-color="#522C5C"/>
<stop offset="1" stop-color="#A42261"/>
</linearGradient>
</defs>
</svg>
