<svg width="18" height="20" viewBox="0 0 18 20" fill="none" xmlns="http://www.w3.org/2000/svg">
<path fill-rule="evenodd" clip-rule="evenodd" d="M8.16663 11.6337V1.66668C8.16663 1.20644 8.53972 0.833344 8.99996 0.833344C9.4602 0.833344 9.83329 1.20644 9.83329 1.66668V11.6337L11.744 9.72293C12.0695 9.39749 12.5971 9.39749 12.9225 9.72293C13.248 10.0484 13.248 10.576 12.9225 10.9014L9.58922 14.2348C9.26378 14.5602 8.73614 14.5602 8.4107 14.2348L5.07737 10.9014C4.75193 10.576 4.75193 10.0484 5.07737 9.72293C5.40281 9.39749 5.93045 9.39749 6.25588 9.72293L8.16663 11.6337ZM0.666626 14.1667V16.6667C0.666626 18.0474 1.78591 19.1667 3.16663 19.1667H14.8333C16.214 19.1667 17.3333 18.0474 17.3333 16.6667V14.1667C17.3333 13.7064 16.9602 13.3333 16.5 13.3333C16.0397 13.3333 15.6666 13.7064 15.6666 14.1667V16.6667C15.6666 17.1269 15.2935 17.5 14.8333 17.5H3.16663C2.70639 17.5 2.33329 17.1269 2.33329 16.6667V14.1667C2.33329 13.7064 1.9602 13.3333 1.49996 13.3333C1.03972 13.3333 0.666626 13.7064 0.666626 14.1667Z" fill="url(#paint0_linear_1_10352)"/>
<defs>
<linearGradient id="paint0_linear_1_10352" x1="0.666626" y1="0.833344" x2="18.6637" y2="2.24866" gradientUnits="userSpaceOnUse">
<stop stop-color="#522C5C"/>
<stop offset="1" stop-color="#A42261"/>
</linearGradient>
</defs>
</svg>
