<svg width="20" height="20" viewBox="0 0 20 20" fill="none" xmlns="http://www.w3.org/2000/svg">
<path fill-rule="evenodd" clip-rule="evenodd" d="M7.5 10.0003C5.19881 10.0003 3.33333 8.13485 3.33333 5.83366C3.33333 3.53247 5.19881 1.66699 7.5 1.66699C9.80119 1.66699 11.6667 3.53247 11.6667 5.83366C11.6667 8.13485 9.80119 10.0003 7.5 10.0003ZM15 17.5003V15.8337C15 13.5325 13.1345 11.667 10.8333 11.667H4.16667C1.86548 11.667 0 13.5325 0 15.8337V17.5003C0 17.9606 0.373096 18.3337 0.833333 18.3337C1.29357 18.3337 1.66667 17.9606 1.66667 17.5003V15.8337C1.66667 14.4529 2.78595 13.3337 4.16667 13.3337H10.8333C12.214 13.3337 13.3333 14.4529 13.3333 15.8337V17.5003C13.3333 17.9606 13.7064 18.3337 14.1667 18.3337C14.6269 18.3337 15 17.9606 15 17.5003ZM20 15.8337V17.5003C20 17.9606 19.6269 18.3337 19.1667 18.3337C18.7064 18.3337 18.3333 17.9606 18.3333 17.5003V15.8343C18.3325 14.695 17.5615 13.7004 16.4583 13.4155C16.0127 13.3005 15.7447 12.8459 15.8598 12.4003C15.9749 11.9547 16.4294 11.6867 16.875 11.8018C18.7135 12.2765 19.9986 13.9342 20 15.8337ZM13.1266 3.41595C14.2328 3.69918 15.0065 4.69594 15.0065 5.83782C15.0065 6.97971 14.2328 7.97647 13.1266 8.2597C12.6808 8.37386 12.4119 8.82784 12.526 9.27369C12.6402 9.71955 13.0942 9.98844 13.54 9.87428C15.3837 9.40223 16.6732 7.74096 16.6732 5.83782C16.6732 3.93469 15.3837 2.27342 13.54 1.80137C13.0942 1.68721 12.6402 1.9561 12.526 2.40196C12.4119 2.84781 12.6808 3.30179 13.1266 3.41595ZM10 5.83366C10 7.21437 8.88071 8.33366 7.5 8.33366C6.11929 8.33366 5 7.21437 5 5.83366C5 4.45295 6.11929 3.33366 7.5 3.33366C8.88071 3.33366 10 4.45295 10 5.83366Z" fill="#522A5D"/>
<mask id="mask0_1504_5930" style="mask-type:alpha" maskUnits="userSpaceOnUse" x="0" y="1" width="20" height="18">
<path fill-rule="evenodd" clip-rule="evenodd" d="M7.5 10.0003C5.19881 10.0003 3.33333 8.13485 3.33333 5.83366C3.33333 3.53247 5.19881 1.66699 7.5 1.66699C9.80119 1.66699 11.6667 3.53247 11.6667 5.83366C11.6667 8.13485 9.80119 10.0003 7.5 10.0003ZM15 17.5003V15.8337C15 13.5325 13.1345 11.667 10.8333 11.667H4.16667C1.86548 11.667 0 13.5325 0 15.8337V17.5003C0 17.9606 0.373096 18.3337 0.833333 18.3337C1.29357 18.3337 1.66667 17.9606 1.66667 17.5003V15.8337C1.66667 14.4529 2.78595 13.3337 4.16667 13.3337H10.8333C12.214 13.3337 13.3333 14.4529 13.3333 15.8337V17.5003C13.3333 17.9606 13.7064 18.3337 14.1667 18.3337C14.6269 18.3337 15 17.9606 15 17.5003ZM20 15.8337V17.5003C20 17.9606 19.6269 18.3337 19.1667 18.3337C18.7064 18.3337 18.3333 17.9606 18.3333 17.5003V15.8343C18.3325 14.695 17.5615 13.7004 16.4583 13.4155C16.0127 13.3005 15.7447 12.8459 15.8598 12.4003C15.9749 11.9547 16.4294 11.6867 16.875 11.8018C18.7135 12.2765 19.9986 13.9342 20 15.8337ZM13.1266 3.41595C14.2328 3.69918 15.0065 4.69594 15.0065 5.83782C15.0065 6.97971 14.2328 7.97647 13.1266 8.2597C12.6808 8.37386 12.4119 8.82784 12.526 9.27369C12.6402 9.71955 13.0942 9.98844 13.54 9.87428C15.3837 9.40223 16.6732 7.74096 16.6732 5.83782C16.6732 3.93469 15.3837 2.27342 13.54 1.80137C13.0942 1.68721 12.6402 1.9561 12.526 2.40196C12.4119 2.84781 12.6808 3.30179 13.1266 3.41595ZM10 5.83366C10 7.21437 8.88071 8.33366 7.5 8.33366C6.11929 8.33366 5 7.21437 5 5.83366C5 4.45295 6.11929 3.33366 7.5 3.33366C8.88071 3.33366 10 4.45295 10 5.83366Z" fill="white"/>
</mask>
<g mask="url(#mask0_1504_5930)">
<rect width="20" height="20" fill="#522A5D"/>
</g>
</svg>
