<svg width="12" height="12" viewBox="0 0 12 12" fill="none" xmlns="http://www.w3.org/2000/svg">
<path fill-rule="evenodd" clip-rule="evenodd" d="M10 6.00314V5.53814C10 5.262 10.2239 5.03814 10.5 5.03814C10.7762 5.03814 11 5.262 11 5.53814V6.00343C10.9986 8.43921 9.39529 10.5839 7.05947 11.2746C4.72366 11.9652 2.2118 11.0372 0.886056 8.99382C-0.439685 6.95043 -0.263494 4.27843 1.31908 2.42682C2.90166 0.575207 5.51362 -0.0149319 7.73853 0.976429C7.99077 1.08882 8.10414 1.38441 7.99175 1.63664C7.87936 1.88888 7.58377 2.00225 7.33153 1.88986C5.51115 1.07874 3.37409 1.56158 2.07925 3.07654C0.78442 4.59149 0.640264 6.77768 1.72496 8.44954C2.80966 10.1214 4.86482 10.8807 6.77594 10.3156C8.68706 9.75055 9.99889 7.99577 10 6.00314ZM4.35358 5.14959L5.50003 6.29604L10.6465 1.14959C10.8417 0.954328 11.1583 0.954328 11.3536 1.14959C11.5488 1.34485 11.5488 1.66143 11.3536 1.8567L5.85358 7.3567C5.65832 7.55196 5.34174 7.55196 5.14648 7.3567L3.64648 5.8567C3.45122 5.66143 3.45122 5.34485 3.64648 5.14959C3.84174 4.95433 4.15832 4.95433 4.35358 5.14959Z" fill="#40A4B1"/>
<mask id="mask0_1504_6426" style="mask-type:alpha" maskUnits="userSpaceOnUse" x="0" y="0" width="12" height="12">
<path fill-rule="evenodd" clip-rule="evenodd" d="M10 6.00314V5.53814C10 5.262 10.2239 5.03814 10.5 5.03814C10.7762 5.03814 11 5.262 11 5.53814V6.00343C10.9986 8.43921 9.39529 10.5839 7.05947 11.2746C4.72366 11.9652 2.2118 11.0372 0.886056 8.99382C-0.439685 6.95043 -0.263494 4.27843 1.31908 2.42682C2.90166 0.575207 5.51362 -0.0149319 7.73853 0.976429C7.99077 1.08882 8.10414 1.38441 7.99175 1.63664C7.87936 1.88888 7.58377 2.00225 7.33153 1.88986C5.51115 1.07874 3.37409 1.56158 2.07925 3.07654C0.78442 4.59149 0.640264 6.77768 1.72496 8.44954C2.80966 10.1214 4.86482 10.8807 6.77594 10.3156C8.68706 9.75055 9.99889 7.99577 10 6.00314ZM4.35358 5.14959L5.50003 6.29604L10.6465 1.14959C10.8417 0.954328 11.1583 0.954328 11.3536 1.14959C11.5488 1.34485 11.5488 1.66143 11.3536 1.8567L5.85358 7.3567C5.65832 7.55196 5.34174 7.55196 5.14648 7.3567L3.64648 5.8567C3.45122 5.66143 3.45122 5.34485 3.64648 5.14959C3.84174 4.95433 4.15832 4.95433 4.35358 5.14959Z" fill="white"/>
</mask>
<g mask="url(#mask0_1504_6426)">
<rect width="12" height="12" fill="#40A4B1"/>
</g>
</svg>
