<svg width="20" height="20" viewBox="0 0 20 20" fill="none" xmlns="http://www.w3.org/2000/svg">
<path fill-rule="evenodd" clip-rule="evenodd" d="M1.66683 14.9997C0.555718 14.9997 0.555718 13.333 1.66683 13.333C2.5873 13.333 3.3335 12.5868 3.3335 11.6663V7.49967C3.3335 3.81778 6.31826 0.833008 10.0002 0.833008C13.6821 0.833008 16.6668 3.81778 16.6668 7.49967V11.6663C16.6668 12.5868 17.413 13.333 18.3335 13.333C19.4446 13.333 19.4446 14.9997 18.3335 14.9997H1.66683ZM15.0002 11.6663V7.49967C15.0002 4.73825 12.7616 2.49967 10.0002 2.49967C7.23874 2.49967 5.00017 4.73825 5.00017 7.49967V11.6663C5.00017 12.2735 4.83784 12.8427 4.55423 13.333H15.4461C15.1625 12.8427 15.0002 12.2735 15.0002 11.6663ZM10.0002 19.1634C10.8915 19.1634 11.7154 18.6888 12.1627 17.9178C12.4849 17.3623 12.0841 16.6663 11.4418 16.6663H8.55849C7.91623 16.6663 7.51539 17.3623 7.83765 17.9178C8.2849 18.6888 9.10882 19.1634 10.0002 19.1634Z" fill="#522A5D"/>
<mask id="mask0_1504_5887" style="mask-type:alpha" maskUnits="userSpaceOnUse" x="0" y="0" width="20" height="20">
<path fill-rule="evenodd" clip-rule="evenodd" d="M1.66683 14.9997C0.555718 14.9997 0.555718 13.333 1.66683 13.333C2.5873 13.333 3.3335 12.5868 3.3335 11.6663V7.49967C3.3335 3.81778 6.31826 0.833008 10.0002 0.833008C13.6821 0.833008 16.6668 3.81778 16.6668 7.49967V11.6663C16.6668 12.5868 17.413 13.333 18.3335 13.333C19.4446 13.333 19.4446 14.9997 18.3335 14.9997H1.66683ZM15.0002 11.6663V7.49967C15.0002 4.73825 12.7616 2.49967 10.0002 2.49967C7.23874 2.49967 5.00017 4.73825 5.00017 7.49967V11.6663C5.00017 12.2735 4.83784 12.8427 4.55423 13.333H15.4461C15.1625 12.8427 15.0002 12.2735 15.0002 11.6663ZM10.0002 19.1634C10.8915 19.1634 11.7154 18.6888 12.1627 17.9178C12.4849 17.3623 12.0841 16.6663 11.4418 16.6663H8.55849C7.91623 16.6663 7.51539 17.3623 7.83765 17.9178C8.2849 18.6888 9.10882 19.1634 10.0002 19.1634Z" fill="white"/>
</mask>
<g mask="url(#mask0_1504_5887)">
<rect width="20" height="20" fill="#522A5D"/>
</g>
</svg>
