<svg width="20" height="20" viewBox="0 0 20 20" fill="none" xmlns="http://www.w3.org/2000/svg">
<path fill-rule="evenodd" clip-rule="evenodd" d="M12.4998 2.49967V1.66634C12.4998 1.2061 12.8729 0.833008 13.3332 0.833008C13.7934 0.833008 14.1665 1.2061 14.1665 1.66634V2.49967H15.8332C17.2139 2.49967 18.3332 3.61896 18.3332 4.99967V8.33301V16.6663C18.3332 18.0471 17.2139 19.1663 15.8332 19.1663H4.1665C2.78579 19.1663 1.6665 18.0471 1.6665 16.6663V8.33301V4.99967C1.6665 3.61896 2.78579 2.49967 4.1665 2.49967H5.83317V1.66634C5.83317 1.2061 6.20627 0.833008 6.6665 0.833008C7.12674 0.833008 7.49984 1.2061 7.49984 1.66634V2.49967H12.4998ZM3.33317 9.16634V16.6663C3.33317 17.1266 3.70627 17.4997 4.1665 17.4997H15.8332C16.2934 17.4997 16.6665 17.1266 16.6665 16.6663V9.16634H3.33317ZM16.6665 7.49967H3.33317V4.99967C3.33317 4.53944 3.70627 4.16634 4.1665 4.16634H5.83317V4.99967C5.83317 5.45991 6.20627 5.83301 6.6665 5.83301C7.12674 5.83301 7.49984 5.45991 7.49984 4.99967V4.16634H12.4998V4.99967C12.4998 5.45991 12.8729 5.83301 13.3332 5.83301C13.7934 5.83301 14.1665 5.45991 14.1665 4.99967V4.16634H15.8332C16.2934 4.16634 16.6665 4.53944 16.6665 4.99967V7.49967Z" fill="#522A5D"/>
<mask id="mask0_1504_5913" style="mask-type:alpha" maskUnits="userSpaceOnUse" x="1" y="0" width="18" height="20">
<path fill-rule="evenodd" clip-rule="evenodd" d="M12.4998 2.49967V1.66634C12.4998 1.2061 12.8729 0.833008 13.3332 0.833008C13.7934 0.833008 14.1665 1.2061 14.1665 1.66634V2.49967H15.8332C17.2139 2.49967 18.3332 3.61896 18.3332 4.99967V8.33301V16.6663C18.3332 18.0471 17.2139 19.1663 15.8332 19.1663H4.1665C2.78579 19.1663 1.6665 18.0471 1.6665 16.6663V8.33301V4.99967C1.6665 3.61896 2.78579 2.49967 4.1665 2.49967H5.83317V1.66634C5.83317 1.2061 6.20627 0.833008 6.6665 0.833008C7.12674 0.833008 7.49984 1.2061 7.49984 1.66634V2.49967H12.4998ZM3.33317 9.16634V16.6663C3.33317 17.1266 3.70627 17.4997 4.1665 17.4997H15.8332C16.2934 17.4997 16.6665 17.1266 16.6665 16.6663V9.16634H3.33317ZM16.6665 7.49967H3.33317V4.99967C3.33317 4.53944 3.70627 4.16634 4.1665 4.16634H5.83317V4.99967C5.83317 5.45991 6.20627 5.83301 6.6665 5.83301C7.12674 5.83301 7.49984 5.45991 7.49984 4.99967V4.16634H12.4998V4.99967C12.4998 5.45991 12.8729 5.83301 13.3332 5.83301C13.7934 5.83301 14.1665 5.45991 14.1665 4.99967V4.16634H15.8332C16.2934 4.16634 16.6665 4.53944 16.6665 4.99967V7.49967Z" fill="white"/>
</mask>
<g mask="url(#mask0_1504_5913)">
<rect width="20" height="20" fill="#522A5D"/>
</g>
</svg>
