<svg width="14" height="14" viewBox="0 0 14 14" fill="none" xmlns="http://www.w3.org/2000/svg">
<path fill-rule="evenodd" clip-rule="evenodd" d="M0.583252 6.99967C0.583252 10.5435 3.45609 13.4163 6.99992 13.4163C10.5437 13.4163 13.4166 10.5435 13.4166 6.99967C13.4166 3.45585 10.5437 0.583008 6.99992 0.583008C3.45609 0.583008 0.583252 3.45585 0.583252 6.99967ZM12.2499 6.99967C12.2499 9.89917 9.89941 12.2497 6.99992 12.2497C4.10042 12.2497 1.74992 9.89917 1.74992 6.99967C1.74992 4.10018 4.10042 1.74967 6.99992 1.74967C9.89941 1.74967 12.2499 4.10018 12.2499 6.99967ZM6.41659 4.66634V6.99967C6.41659 7.32184 6.67775 7.58301 6.99992 7.58301C7.32208 7.58301 7.58325 7.32184 7.58325 6.99967V4.66634C7.58325 4.34417 7.32208 4.08301 6.99992 4.08301C6.67775 4.08301 6.41659 4.34417 6.41659 4.66634ZM7.4124 8.33719C7.6402 8.565 7.6402 8.93435 7.4124 9.16215C7.18459 9.38996 6.81525 9.38996 6.58744 9.16215C6.35963 8.93435 6.35963 8.565 6.58744 8.33719C6.81525 8.10939 7.18459 8.10939 7.4124 8.33719Z" fill="#E27B7B"/>
<mask id="mask0_1504_7230" style="mask-type:alpha" maskUnits="userSpaceOnUse" x="0" y="0" width="14" height="14">
<path fill-rule="evenodd" clip-rule="evenodd" d="M0.583252 6.99967C0.583252 10.5435 3.45609 13.4163 6.99992 13.4163C10.5437 13.4163 13.4166 10.5435 13.4166 6.99967C13.4166 3.45585 10.5437 0.583008 6.99992 0.583008C3.45609 0.583008 0.583252 3.45585 0.583252 6.99967ZM12.2499 6.99967C12.2499 9.89917 9.89941 12.2497 6.99992 12.2497C4.10042 12.2497 1.74992 9.89917 1.74992 6.99967C1.74992 4.10018 4.10042 1.74967 6.99992 1.74967C9.89941 1.74967 12.2499 4.10018 12.2499 6.99967ZM6.41659 4.66634V6.99967C6.41659 7.32184 6.67775 7.58301 6.99992 7.58301C7.32208 7.58301 7.58325 7.32184 7.58325 6.99967V4.66634C7.58325 4.34417 7.32208 4.08301 6.99992 4.08301C6.67775 4.08301 6.41659 4.34417 6.41659 4.66634ZM7.4124 8.33719C7.6402 8.565 7.6402 8.93435 7.4124 9.16215C7.18459 9.38996 6.81525 9.38996 6.58744 9.16215C6.35963 8.93435 6.35963 8.565 6.58744 8.33719C6.81525 8.10939 7.18459 8.10939 7.4124 8.33719Z" fill="white"/>
</mask>
<g mask="url(#mask0_1504_7230)">
<rect width="14" height="14" fill="#E27B7B"/>
</g>
</svg>
