<svg width="16" height="16" viewBox="0 0 16 16" fill="none" xmlns="http://www.w3.org/2000/svg">
<path fill-rule="evenodd" clip-rule="evenodd" d="M7.3335 9.3067V1.33366C7.3335 0.965469 7.63197 0.666992 8.00016 0.666992C8.36835 0.666992 8.66683 0.965469 8.66683 1.33366V9.30703L10.1956 7.77827C10.4559 7.51792 10.878 7.51792 11.1384 7.77827C11.3987 8.03862 11.3987 8.46073 11.1384 8.72108L8.47173 11.3877C8.21138 11.6481 7.78927 11.6481 7.52892 11.3877L4.86225 8.72108C4.6019 8.46073 4.6019 8.03862 4.86225 7.77827C5.1226 7.51792 5.54471 7.51792 5.80506 7.77827L7.3335 9.3067ZM1.3335 11.3337V13.3337C1.3335 14.4382 2.22893 15.3337 3.3335 15.3337H12.6668C13.7714 15.3337 14.6668 14.4382 14.6668 13.3337V11.3337C14.6668 10.9655 14.3684 10.667 14.0002 10.667C13.632 10.667 13.3335 10.9655 13.3335 11.3337V13.3337C13.3335 13.7018 13.035 14.0003 12.6668 14.0003H3.3335C2.96531 14.0003 2.66683 13.7018 2.66683 13.3337V11.3337C2.66683 10.9655 2.36835 10.667 2.00016 10.667C1.63197 10.667 1.3335 10.9655 1.3335 11.3337Z" fill="#171619"/>
</svg>
