<svg width="16" height="16" viewBox="0 0 16 16" fill="none" xmlns="http://www.w3.org/2000/svg">
<path fill-rule="evenodd" clip-rule="evenodd" d="M9.05015 10.6599C7.89253 10.577 6.828 9.99535 6.13283 9.06599C5.91229 8.77116 5.97252 8.35337 6.26736 8.13283C6.56219 7.91229 6.97998 7.97252 7.20052 8.26736C7.66396 8.88693 8.37365 9.27466 9.1454 9.32993C9.91714 9.38521 10.6748 9.10256 11.2219 8.55527L13.2138 6.56353C14.2244 5.51719 14.21 3.85397 13.1813 2.82535C12.1527 1.79673 10.4895 1.78227 9.45004 2.78612L8.30337 3.92612C8.04226 4.18571 7.62015 4.18448 7.36056 3.92337C7.10098 3.66226 7.10221 3.24015 7.36331 2.98056L8.51687 1.83382C10.0864 0.317927 12.5812 0.339607 14.1241 1.88254C15.6671 3.42548 15.6888 5.9203 14.1647 7.49808L12.1648 9.49799C11.3443 10.3188 10.2078 10.7428 9.05015 10.6599ZM6.94984 5.34016C8.10745 5.42307 9.17199 6.00467 9.86716 6.93403C10.0877 7.22886 10.0275 7.64665 9.73263 7.86719C9.4378 8.08773 9.02001 8.0275 8.79947 7.73267C8.33603 7.1131 7.62634 6.72536 6.85459 6.67009C6.08285 6.61482 5.32514 6.89746 4.77805 7.44475L2.78617 9.43649C1.77558 10.4828 1.79003 12.146 2.81866 13.1747C3.84728 14.2033 5.5105 14.2177 6.54858 13.2153L7.68858 12.0753C7.94893 11.8149 8.37104 11.8149 8.63138 12.0753C8.89173 12.3356 8.89173 12.7577 8.63138 13.0181L7.48312 14.1662C5.91361 15.6821 3.41878 15.6604 1.87585 14.1175C0.332912 12.5745 0.311233 10.0797 1.83524 8.50194L3.83516 6.50203C4.65566 5.68122 5.79222 5.25726 6.94984 5.34016Z" fill="url(#paint0_linear_1_10231)"/>
<defs>
<linearGradient id="paint0_linear_1_10231" x1="0.705322" y1="0.710968" x2="16.4388" y2="2.07304" gradientUnits="userSpaceOnUse">
<stop stop-color="#522C5C"/>
<stop offset="1" stop-color="#A42261"/>
</linearGradient>
</defs>
</svg>
