<svg width="20" height="20" viewBox="0 0 20 20" fill="none" xmlns="http://www.w3.org/2000/svg">
<path fill-rule="evenodd" clip-rule="evenodd" d="M0.833496 9.99967C0.833496 15.0623 4.93755 19.1663 10.0002 19.1663C15.0628 19.1663 19.1668 15.0623 19.1668 9.99967C19.1668 4.93706 15.0628 0.833008 10.0002 0.833008C4.93755 0.833008 0.833496 4.93706 0.833496 9.99967ZM17.5002 9.99967C17.5002 14.1418 14.1423 17.4997 10.0002 17.4997C5.85803 17.4997 2.50016 14.1418 2.50016 9.99967C2.50016 5.85754 5.85803 2.49967 10.0002 2.49967C14.1423 2.49967 17.5002 5.85754 17.5002 9.99967ZM10.8335 13.333V9.99967C10.8335 9.53944 10.4604 9.16634 10.0002 9.16634C9.53993 9.16634 9.16683 9.53944 9.16683 9.99967V13.333C9.16683 13.7932 9.53993 14.1663 10.0002 14.1663C10.4604 14.1663 10.8335 13.7932 10.8335 13.333ZM10.5894 8.08893C10.264 8.41437 9.73634 8.41437 9.41091 8.08893C9.08547 7.76349 9.08547 7.23586 9.41091 6.91042C9.73634 6.58498 10.264 6.58498 10.5894 6.91042C10.9149 7.23586 10.9149 7.76349 10.5894 8.08893Z" fill="#522A5D"/>
<mask id="mask0_1504_5898" style="mask-type:alpha" maskUnits="userSpaceOnUse" x="0" y="0" width="20" height="20">
<path fill-rule="evenodd" clip-rule="evenodd" d="M0.833496 9.99967C0.833496 15.0623 4.93755 19.1663 10.0002 19.1663C15.0628 19.1663 19.1668 15.0623 19.1668 9.99967C19.1668 4.93706 15.0628 0.833008 10.0002 0.833008C4.93755 0.833008 0.833496 4.93706 0.833496 9.99967ZM17.5002 9.99967C17.5002 14.1418 14.1423 17.4997 10.0002 17.4997C5.85803 17.4997 2.50016 14.1418 2.50016 9.99967C2.50016 5.85754 5.85803 2.49967 10.0002 2.49967C14.1423 2.49967 17.5002 5.85754 17.5002 9.99967ZM10.8335 13.333V9.99967C10.8335 9.53944 10.4604 9.16634 10.0002 9.16634C9.53993 9.16634 9.16683 9.53944 9.16683 9.99967V13.333C9.16683 13.7932 9.53993 14.1663 10.0002 14.1663C10.4604 14.1663 10.8335 13.7932 10.8335 13.333ZM10.5894 8.08893C10.264 8.41437 9.73634 8.41437 9.41091 8.08893C9.08547 7.76349 9.08547 7.23586 9.41091 6.91042C9.73634 6.58498 10.264 6.58498 10.5894 6.91042C10.9149 7.23586 10.9149 7.76349 10.5894 8.08893Z" fill="white"/>
</mask>
<g mask="url(#mask0_1504_5898)">
<rect width="20" height="20" fill="#522A5D"/>
</g>
</svg>
