<svg width="16" height="16" viewBox="0 0 16 16" fill="none" xmlns="http://www.w3.org/2000/svg">
<path fill-rule="evenodd" clip-rule="evenodd" d="M2.01845e-06 5.9971C-0.000200037 6.07946 0.0147675 6.16194 0.0450461 6.24L0.0483666 6.24838C0.147206 6.49282 0.386797 6.66528 0.666669 6.66528H4.66667C5.03486 6.66528 5.33334 6.3668 5.33334 5.99861C5.33334 5.63042 5.03486 5.33195 4.66667 5.33195H2.3497L4.21652 3.57778C5.52608 2.26803 7.3946 1.72756 9.18069 2.13168C10.9668 2.53581 12.4206 3.82801 13.0315 5.55434C13.1544 5.90144 13.5353 6.08325 13.8824 5.96042C14.2295 5.8376 14.4113 5.45665 14.2885 5.10955C13.5249 2.95163 11.7075 1.33638 9.47493 0.831224C7.24233 0.326068 4.90667 1.00166 3.28848 2.62066L1.33334 4.45754V1.99862C1.33334 1.63043 1.03486 1.33195 0.666669 1.33195C0.298479 1.33195 2.01845e-06 1.63043 2.01845e-06 1.99862V5.9971ZM15.3333 10.0016C15.3335 9.91928 15.3186 9.8368 15.2883 9.75875L15.285 9.75037C15.1861 9.50592 14.9465 9.33346 14.6667 9.33346H10.6667C10.2985 9.33346 10 9.63194 10 10.0001C10 10.3683 10.2985 10.6668 10.6667 10.6668H12.9836L11.1168 12.421C9.80726 13.7307 7.93874 14.2712 6.15265 13.8671C4.36656 13.4629 2.91271 12.1707 2.30181 10.4444C2.17899 10.0973 1.79804 9.91549 1.45094 10.0383C1.10384 10.1611 0.922033 10.5421 1.04486 10.8892C1.80848 13.0471 3.6258 14.6624 5.8584 15.1675C8.09101 15.6727 10.4267 14.9971 12.0449 13.3781L14 11.5412V14.0001C14 14.3683 14.2985 14.6668 14.6667 14.6668C15.0349 14.6668 15.3333 14.3683 15.3333 14.0001V10.0016Z" fill="#5F0422"/>
<mask id="mask0_1_10626" style="mask-type:alpha" maskUnits="userSpaceOnUse" x="0" y="0" width="16" height="16">
<path fill-rule="evenodd" clip-rule="evenodd" d="M2.01845e-06 5.9971C-0.000200037 6.07946 0.0147675 6.16194 0.0450461 6.24L0.0483666 6.24838C0.147206 6.49282 0.386797 6.66528 0.666669 6.66528H4.66667C5.03486 6.66528 5.33334 6.3668 5.33334 5.99861C5.33334 5.63042 5.03486 5.33195 4.66667 5.33195H2.3497L4.21652 3.57778C5.52608 2.26803 7.3946 1.72756 9.18069 2.13168C10.9668 2.53581 12.4206 3.82801 13.0315 5.55434C13.1544 5.90144 13.5353 6.08325 13.8824 5.96042C14.2295 5.8376 14.4113 5.45665 14.2885 5.10955C13.5249 2.95163 11.7075 1.33638 9.47493 0.831224C7.24233 0.326068 4.90667 1.00166 3.28848 2.62066L1.33334 4.45754V1.99862C1.33334 1.63043 1.03486 1.33195 0.666669 1.33195C0.298479 1.33195 2.01845e-06 1.63043 2.01845e-06 1.99862V5.9971ZM15.3333 10.0016C15.3335 9.91928 15.3186 9.8368 15.2883 9.75875L15.285 9.75037C15.1861 9.50592 14.9465 9.33346 14.6667 9.33346H10.6667C10.2985 9.33346 10 9.63194 10 10.0001C10 10.3683 10.2985 10.6668 10.6667 10.6668H12.9836L11.1168 12.421C9.80726 13.7307 7.93874 14.2712 6.15265 13.8671C4.36656 13.4629 2.91271 12.1707 2.30181 10.4444C2.17899 10.0973 1.79804 9.91549 1.45094 10.0383C1.10384 10.1611 0.922033 10.5421 1.04486 10.8892C1.80848 13.0471 3.6258 14.6624 5.8584 15.1675C8.09101 15.6727 10.4267 14.9971 12.0449 13.3781L14 11.5412V14.0001C14 14.3683 14.2985 14.6668 14.6667 14.6668C15.0349 14.6668 15.3333 14.3683 15.3333 14.0001V10.0016Z" fill="white"/>
</mask>
<g mask="url(#mask0_1_10626)">
<rect width="16" height="16" fill="#5F0422"/>
</g>
</svg>
