<svg width="14" height="14" viewBox="0 0 14 14" fill="none" xmlns="http://www.w3.org/2000/svg">
<path fill-rule="evenodd" clip-rule="evenodd" d="M11.6667 7.00334V6.46084C11.6667 6.13868 11.9279 5.87751 12.25 5.87751C12.5722 5.87751 12.8334 6.13868 12.8334 6.46084V7.00367C12.8317 9.84542 10.9612 12.3476 8.23605 13.1533C5.51093 13.9591 2.58043 12.8764 1.03373 10.4925C-0.512966 8.10851 -0.30741 4.99118 1.53893 2.83096C3.38527 0.670749 6.43256 -0.0177461 9.02829 1.13884C9.32256 1.26996 9.45482 1.61482 9.3237 1.90909C9.19258 2.20337 8.84773 2.33563 8.55345 2.20451C6.42968 1.25821 3.93644 1.82152 2.4258 3.58897C0.915156 5.35642 0.746974 7.90696 2.01245 9.85747C3.27793 11.808 5.67562 12.6938 7.90526 12.0346C10.1349 11.3753 11.6654 9.32807 11.6667 7.00334ZM5.07918 6.00753L6.4167 7.34505L12.4209 1.34086C12.6487 1.11306 13.018 1.11306 13.2458 1.34086C13.4737 1.56867 13.4737 1.93801 13.2458 2.16582L6.82918 8.58249C6.60138 8.81029 6.23203 8.81029 6.00422 8.58249L4.25422 6.83249C4.02642 6.60468 4.02642 6.23534 4.25422 6.00753C4.48203 5.77972 4.85138 5.77972 5.07918 6.00753Z" fill="#40A4B1"/>
<mask id="mask0_1504_7175" style="mask-type:alpha" maskUnits="userSpaceOnUse" x="0" y="0" width="14" height="14">
<path fill-rule="evenodd" clip-rule="evenodd" d="M11.6667 7.00334V6.46084C11.6667 6.13868 11.9279 5.87751 12.25 5.87751C12.5722 5.87751 12.8334 6.13868 12.8334 6.46084V7.00367C12.8317 9.84542 10.9612 12.3476 8.23605 13.1533C5.51093 13.9591 2.58043 12.8764 1.03373 10.4925C-0.512966 8.10851 -0.30741 4.99118 1.53893 2.83096C3.38527 0.670749 6.43256 -0.0177461 9.02829 1.13884C9.32256 1.26996 9.45482 1.61482 9.3237 1.90909C9.19258 2.20337 8.84773 2.33563 8.55345 2.20451C6.42968 1.25821 3.93644 1.82152 2.4258 3.58897C0.915156 5.35642 0.746974 7.90696 2.01245 9.85747C3.27793 11.808 5.67562 12.6938 7.90526 12.0346C10.1349 11.3753 11.6654 9.32807 11.6667 7.00334ZM5.07918 6.00753L6.4167 7.34505L12.4209 1.34086C12.6487 1.11306 13.018 1.11306 13.2458 1.34086C13.4737 1.56867 13.4737 1.93801 13.2458 2.16582L6.82918 8.58249C6.60138 8.81029 6.23203 8.81029 6.00422 8.58249L4.25422 6.83249C4.02642 6.60468 4.02642 6.23534 4.25422 6.00753C4.48203 5.77972 4.85138 5.77972 5.07918 6.00753Z" fill="white"/>
</mask>
<g mask="url(#mask0_1504_7175)">
<rect width="14" height="14" fill="#40A4B1"/>
</g>
</svg>
