<svg width="14" height="14" viewBox="0 0 14 14" fill="none" xmlns="http://www.w3.org/2000/svg">
<path fill-rule="evenodd" clip-rule="evenodd" d="M6.77655 0.62727C6.70775 0.655737 6.64329 0.697934 6.58736 0.753862L4.25402 3.0872C4.02622 3.315 4.02622 3.68435 4.25402 3.91215C4.48183 4.13996 4.85118 4.13996 5.07898 3.91215L6.4165 2.57463V9.33301C6.4165 9.65517 6.67767 9.91634 6.99984 9.91634C7.322 9.91634 7.58317 9.65517 7.58317 9.33301V2.57463L8.92069 3.91215C9.1485 4.13996 9.51784 4.13996 9.74565 3.91215C9.97345 3.68435 9.97345 3.315 9.74565 3.0872L7.41286 0.754404L7.41232 0.753862C7.35639 0.697934 7.29193 0.655737 7.22313 0.62727C7.15435 0.598749 7.07893 0.583008 6.99984 0.583008C6.92074 0.583008 6.84533 0.598749 6.77655 0.62727ZM1.1665 9.91634V11.6663C1.1665 12.6328 1.95001 13.4163 2.9165 13.4163H11.0832C12.0497 13.4163 12.8332 12.6328 12.8332 11.6663V9.91634C12.8332 9.59418 12.572 9.33301 12.2498 9.33301C11.9277 9.33301 11.6665 9.59418 11.6665 9.91634V11.6663C11.6665 11.9885 11.4053 12.2497 11.0832 12.2497H2.9165C2.59434 12.2497 2.33317 11.9885 2.33317 11.6663V9.91634C2.33317 9.59418 2.072 9.33301 1.74984 9.33301C1.42767 9.33301 1.1665 9.59418 1.1665 9.91634Z" fill="#17161A"/>
<mask id="mask0_1504_7159" style="mask-type:alpha" maskUnits="userSpaceOnUse" x="1" y="0" width="12" height="14">
<path fill-rule="evenodd" clip-rule="evenodd" d="M6.77655 0.62727C6.70775 0.655737 6.64329 0.697934 6.58736 0.753862L4.25402 3.0872C4.02622 3.315 4.02622 3.68435 4.25402 3.91215C4.48183 4.13996 4.85118 4.13996 5.07898 3.91215L6.4165 2.57463V9.33301C6.4165 9.65517 6.67767 9.91634 6.99984 9.91634C7.322 9.91634 7.58317 9.65517 7.58317 9.33301V2.57463L8.92069 3.91215C9.1485 4.13996 9.51784 4.13996 9.74565 3.91215C9.97345 3.68435 9.97345 3.315 9.74565 3.0872L7.41286 0.754404L7.41232 0.753862C7.35639 0.697934 7.29193 0.655737 7.22313 0.62727C7.15435 0.598749 7.07893 0.583008 6.99984 0.583008C6.92074 0.583008 6.84533 0.598749 6.77655 0.62727ZM1.1665 9.91634V11.6663C1.1665 12.6328 1.95001 13.4163 2.9165 13.4163H11.0832C12.0497 13.4163 12.8332 12.6328 12.8332 11.6663V9.91634C12.8332 9.59418 12.572 9.33301 12.2498 9.33301C11.9277 9.33301 11.6665 9.59418 11.6665 9.91634V11.6663C11.6665 11.9885 11.4053 12.2497 11.0832 12.2497H2.9165C2.59434 12.2497 2.33317 11.9885 2.33317 11.6663V9.91634C2.33317 9.59418 2.072 9.33301 1.74984 9.33301C1.42767 9.33301 1.1665 9.59418 1.1665 9.91634Z" fill="white"/>
</mask>
<g mask="url(#mask0_1504_7159)">
<rect width="14" height="14" fill="#17161A"/>
</g>
</svg>
