<svg width="16" height="16" viewBox="0 0 16 16" fill="none" xmlns="http://www.w3.org/2000/svg">
<path fill-rule="evenodd" clip-rule="evenodd" d="M0.666504 8.00006C0.666504 12.0502 3.94975 15.3334 7.99984 15.3334C12.0499 15.3334 15.3332 12.0502 15.3332 8.00006C15.3332 3.94998 12.0499 0.666733 7.99984 0.666733C3.94975 0.666733 0.666504 3.94998 0.666504 8.00006ZM13.9998 8C13.9998 11.3137 11.3135 14 7.99982 14C4.68611 14 1.99982 11.3137 1.99982 8C1.99982 4.68629 4.68611 2 7.99982 2C11.3135 2 13.9998 4.68629 13.9998 8ZM7.05704 8.00013L5.52845 9.52873C5.2681 9.78908 5.2681 10.2112 5.52845 10.4715C5.7888 10.7319 6.21091 10.7319 6.47126 10.4715L7.99985 8.94294L9.52845 10.4715C9.7888 10.7319 10.2109 10.7319 10.4713 10.4715C10.7316 10.2112 10.7316 9.78908 10.4713 9.52873L8.94266 8.00013L10.4713 6.47154C10.7316 6.21119 10.7316 5.78908 10.4713 5.52873C10.2109 5.26838 9.7888 5.26838 9.52845 5.52873L7.99985 7.05732L6.47126 5.52873C6.21091 5.26838 5.7888 5.26838 5.52845 5.52873C5.2681 5.78908 5.2681 6.21119 5.52845 6.47154L7.05704 8.00013Z" fill="#5F0422"/>
<mask id="mask0_1_10636" style="mask-type:alpha" maskUnits="userSpaceOnUse" x="0" y="0" width="16" height="16">
<path fill-rule="evenodd" clip-rule="evenodd" d="M0.666504 8.00006C0.666504 12.0502 3.94975 15.3334 7.99984 15.3334C12.0499 15.3334 15.3332 12.0502 15.3332 8.00006C15.3332 3.94998 12.0499 0.666733 7.99984 0.666733C3.94975 0.666733 0.666504 3.94998 0.666504 8.00006ZM13.9998 8C13.9998 11.3137 11.3135 14 7.99982 14C4.68611 14 1.99982 11.3137 1.99982 8C1.99982 4.68629 4.68611 2 7.99982 2C11.3135 2 13.9998 4.68629 13.9998 8ZM7.05704 8.00013L5.52845 9.52873C5.2681 9.78908 5.2681 10.2112 5.52845 10.4715C5.7888 10.7319 6.21091 10.7319 6.47126 10.4715L7.99985 8.94294L9.52845 10.4715C9.7888 10.7319 10.2109 10.7319 10.4713 10.4715C10.7316 10.2112 10.7316 9.78908 10.4713 9.52873L8.94266 8.00013L10.4713 6.47154C10.7316 6.21119 10.7316 5.78908 10.4713 5.52873C10.2109 5.26838 9.7888 5.26838 9.52845 5.52873L7.99985 7.05732L6.47126 5.52873C6.21091 5.26838 5.7888 5.26838 5.52845 5.52873C5.2681 5.78908 5.2681 6.21119 5.52845 6.47154L7.05704 8.00013Z" fill="white"/>
</mask>
<g mask="url(#mask0_1_10636)">
<rect width="16" height="16" fill="#5F0422"/>
</g>
</svg>
